<?xml version="1.0"?>
<svg xmlns="http://www.w3.org/2000/svg" xmlns:xlink="http://www.w3.org/1999/xlink" xmlns:svgjs="http://svgjs.com/svgjs" version="1.1" width="512" height="512" x="0" y="0" viewBox="0 0 512 512" style="enable-background:new 0 0 512 512" xml:space="preserve" class=""><g><g xmlns="http://www.w3.org/2000/svg" id="XMLID_125_"><path id="XMLID_1827_" d="m310.374 15.062h-108.748c-28.26 0-51.251 22.991-51.251 51.251v9.124h30v-9.124c0-11.718 9.533-21.251 21.251-21.251h108.748c11.718 0 21.251 9.533 21.251 21.251v9.124h30v-9.124c0-28.259-22.991-51.251-51.251-51.251z" fill="#ffffff" data-original="#000000" style="" class=""/><path id="XMLID_1835_" d="m271.125 271.062v-45.25h-30.25v45.25c0 8.284-6.716 15-15 15h-45.25v30.25h45.25c8.284 0 15 6.716 15 15v45.25h30.25v-45.25c0-8.284 6.716-15 15-15h45.25v-30.25h-45.25c-8.284 0-15-6.715-15-15z" fill="#ffffff" data-original="#000000" style="" class=""/><path id="XMLID_1836_" d="m0 181.687v239.002c0 36.91 26.365 67.771 61.249 74.759v-388.521c-34.884 6.988-61.249 37.849-61.249 74.76z" fill="#ffffff" data-original="#000000" style="" class=""/><path id="XMLID_1837_" d="m450.751 106.927v388.521c34.884-6.988 61.249-37.849 61.249-74.76v-239.001c0-36.911-26.365-67.772-61.249-74.76z" fill="#ffffff" data-original="#000000" style="" class=""/><path id="XMLID_1840_" d="m420.751 105.438h-329.502v391.5h329.502zm-59.376 225.874c0 8.284-6.716 15-15 15h-45.25v45.25c0 8.284-6.716 15-15 15h-60.25c-8.284 0-15-6.716-15-15v-45.25h-45.25c-8.284 0-15-6.716-15-15v-60.25c0-8.284 6.716-15 15-15h45.25v-45.25c0-8.284 6.716-15 15-15h60.25c8.284 0 15 6.716 15 15v45.25h45.25c8.284 0 15 6.716 15 15z" fill="#ffffff" data-original="#000000" style="" class=""/></g></g></svg>
