<svg id="Capa_1" enable-background="new 0 0 512 512" height="512" viewBox="0 0 512 512" width="512" xmlns="http://www.w3.org/2000/svg"><g><path d="m512 242h-121v240l30 30h91v-60l-30-15 30-15v-30l-30-15 30-15v-30l-30-15 30-15z" fill="#adbcd8"/><path d="m0 242h121v240l-30 30h-91v-60l30-15-30-15v-30l30-15-30-15v-30l30-15-30-15z" fill="#c7cfe1"/><path d="m256 242h-105v240h105 105v-240z" fill="#5b5555"/><path d="m256 242h105v240h-105z" fill="#463f3f"/><path d="m121 242h60v240h-60z" fill="#dfe7f4"/><path d="m331 242h60v240h-60z" fill="#c7cfe1"/><path d="m271 0h90v91h-105v-61z" fill="#fd435b"/><path d="m256 0h-15v151h15 15v-151z" fill="#5b5555"/><path d="m256 0h15v151h-15z" fill="#463f3f"/><path d="m256 121c-57.891 0-105 48.109-105 106h105 105c0-57.891-47.109-106-105-106z" fill="#dfe7f4"/><path d="m256 121v106h105c0-57.891-47.109-106-105-106z" fill="#c7cfe1"/><path d="m0 302h60v30h-60z" fill="#dfe7f4" transform="matrix(-1 0 0 -1 60 634)"/><path d="m0 362h60v30h-60z" fill="#dfe7f4" transform="matrix(-1 0 0 -1 60 754)"/><path d="m0 422h60v30h-60z" fill="#dfe7f4" transform="matrix(-1 0 0 -1 60 874)"/><g fill="#c7cfe1"><path d="m452 302h60v30h-60z"/><path d="m452 362h60v30h-60z"/><path d="m452 422h60v30h-60z"/></g><path d="m256 212h-165v60h165 165v-60z" fill="#f0f7ff"/><path d="m256 212h165v60h-165z" fill="#dfe7f4"/><path d="m421 452h-113.789l3.526 33.526 56.474 26.474h53.789z" fill="#dfe7f4"/><path d="m91 452v60h53.789l58.211-28.211 1.789-31.789z" fill="#f0f7ff"/><path d="m307.211 452h-51.211-51.211l-60 60h111.211 111.211z" fill="#dfe7f4"/><path d="m307.211 452h-51.211v60h111.211z" fill="#c7cfe1"/></g></svg>