<svg id="Capa_1" enable-background="new 0 0 512 512" height="512" viewBox="0 0 512 512" width="512" xmlns="http://www.w3.org/2000/svg"><g><g><path clip-rule="evenodd" d="m256.011 485.975c-3.762-.119-7.494-3.344-14.957-9.285l-173.635-172.087-23.645-23.466c-58.366-60.457-58.366-159.368 0-219.826 52.992-54.904 138.645-41.141 195.28 9.882 10.449 9.404 14.121 14.092 16.957 14.062 2.806.03 6.478-4.657 16.957-14.062 56.604-51.023 142.257-64.786 195.279-9.882 58.336 60.457 58.336 159.368 0 219.826l-23.675 23.466-173.604 172.087c-7.493 5.941-11.225 9.166-14.957 9.285z" fill="#ff8086" fill-rule="evenodd"/></g><g><path clip-rule="evenodd" d="m232.844 177.479c11.763-60.099-31.079-94.97-74.696-95.836-44.901-.896-90.669 34.005-78.548 95.836-1.194 51.083-22.66 32.124-22.66 85.058 47.947 46.604 201.429 32.811 195.339-27.975-6.06-19.854-18.539-18.45-19.435-57.083z" fill="#ffe07d" fill-rule="evenodd"/></g><g><path clip-rule="evenodd" d="m357.159 261.741c18.062 0 38.431-11.355 42.901-33.18-.209-.03-.418-.09-.627-.149-9.494-2.597-12.002-14.838-13.942-18.809-10.763-10.356-17.974-10.356-26.988-9.748-4.68.316-14.938-.147-29.676 9.748-1.941 3.971-4.478 16.212-13.972 18.809-.209.06-.418.119-.627.149 8.777 33.18 42.931 33.18 42.931 33.18z" fill="#f1d0a5" fill-rule="evenodd"/></g><g><path clip-rule="evenodd" d="m444.573 304.603 13.524-13.435v-9.793c0-39.29-31.228-45.53-58.037-52.814-8.986 14.211-24.839 23.646-42.901 23.646s-33.915-9.434-42.931-23.646c-11.852 3.224-24.6 6.24-35.109 12.032 14.509 8.151 25.406 24.332 25.406 48.515-.03 0-.06 0-.09 0v.03l.179 9.285c0 19.107-13.106 37.23-29.526 46.157 1.552 3.195 7.165 16.6 14.778 18.66 21.585 5.882 46.991 10.718 46.991 42.425v5.702z" fill="#c3ddff" fill-rule="evenodd"/></g><g><path clip-rule="evenodd" d="m385.491 209.603c16.48-11.345 28.899-30.602 28.899-50.754l-.209-10.39c-27.108-22.262-37.274-27.938-57.037-27.938-6.359 0-34.139-.269-57.037 27.908-.075.093 0-.239 0-.358l-.179 10.778c0 20.152 12.42 39.409 28.899 50.754 4.001 2.747 8.27 5.046 12.629 6.777 11.345 4.448 20.032 4.448 31.377 0 4.388-1.731 8.627-4.03 12.658-6.777z" fill="#ffe4c1" fill-rule="evenodd"/></g><g><path clip-rule="evenodd" d="m232.844 177.479c11.763-60.099-31.079-94.97-74.696-95.836-15.644-.328-31.377 3.702-44.722 11.703 8.031-2.269 16.42-3.344 24.75-3.165 43.648.866 86.489 35.767 74.726 95.866.836 36.215 11.882 37.2 18.211 53.62.597.269 1.164.597 1.732.896 6.031-3.404 12.688-5.404 19.435-6.001-6.061-19.854-18.54-18.45-19.436-57.083z" fill="#ffd064" fill-rule="evenodd"/></g><g><path clip-rule="evenodd" d="m414.181 148.459c.03 0 .06 0 .09-.03 0-60.935-63.172-76.49-89.504-43.977-24.003 6.27-24.242 28.213-24.66 43.977 27.108.269 25.078-13.525 30.392-10.031 19.644 12.957 58.246 20.093 83.682 10.061z" fill="#d19a6e" fill-rule="evenodd"/></g><g><path clip-rule="evenodd" d="m414.271 148.429c0-40.514-27.944-60.965-54.395-60.577 18.51 7.792 33.616 26.751 33.616 56.516l-.09.06.149 8.479c7.344-.567 14.39-1.97 20.63-4.448z" fill="#c38c66" fill-rule="evenodd"/></g><g><path clip-rule="evenodd" d="m385.491 209.603c16.48-11.345 28.899-30.602 28.899-50.754l-.209-10.39c-6.24 2.478-13.285 3.881-20.63 4.448l.03 1.911c0 20.123-12.42 39.379-28.899 50.724-4.03 2.777-8.27 5.046-12.629 6.777-4.538 1.761-8.628 2.836-12.629 3.195.657.299 1.343.597 2.03.866 11.345 4.448 20.032 4.448 31.377 0 4.39-1.731 8.629-4.03 12.66-6.777z" fill="#f1d0a5" fill-rule="evenodd"/></g><g><path clip-rule="evenodd" d="m334.768 228.472c6.896 2.687 21.585 6.926 33.676 2.926 1.224-.418 2.627-2.448 3.911 1.702 1.045 3.404 3.792 7.733 10.18 12.3 2.866-1.642 5.553-3.583 8.001-5.732 3.702-3.224 6.896-6.956 9.524-11.106-.209-.03-.418-.09-.627-.149-9.494-2.597-12.002-14.838-13.942-18.809-4.03 2.747-8.27 5.046-12.658 6.777-11.345 4.448-20.032 4.448-31.377 0-4.359-1.732-8.628-4.03-12.629-6.777-1.224 2.448-2.627 8.121-5.822 12.659 3.762 2.507 7.703 4.597 11.763 6.209z" fill="#e5c093" fill-rule="evenodd"/></g><g><path clip-rule="evenodd" d="m155.102 259.606c18.032 0 33.646-16.833 42.662-31.044-.209-.03-.418-.09-.627-.149-9.494-2.597-12.27-15.107-14.241-19.078-10.342-3.298-12.66-7.161-23.379-8.282-5.818-.608-21.474 1.371-32.509 8.043-1.941 3.971-4.956 16.719-14.45 19.316-.209.06-.418.119-.627.149 13.236 35.165 43.171 31.045 43.171 31.045z" fill="#f1d0a5" fill-rule="evenodd"/></g><g><path clip-rule="evenodd" d="m458.097 281.376c0-39.29-31.228-45.53-58.037-52.814-2.627 4.15-5.822 7.882-9.524 11.106-2.448 2.15-5.135 4.09-8.001 5.732 42.901 8.509 46.693 25.049 54.067 67.085l21.495-21.317z" fill="#9dc6fb" fill-rule="evenodd"/></g><g><path clip-rule="evenodd" d="m236.904 344.58c-16.39-8.927-29.526-27.049-29.526-46.157l.179-9.285.358-.239-.537.209c0-24.183 10.927-40.394 25.466-48.545-10.509-5.762-23.227-8.778-35.079-12.002-9.016 14.211-24.869 23.646-42.901 23.646-18.062 0-33.915-9.434-42.931-23.646-21.794 5.911-46.484 11.136-54.992 33.976-1.97 5.255-3.045 11.465-3.045 18.839v9.793l13.524 13.435 107.716 106.763v-5.702c0-31.707 25.406-36.543 46.991-42.425 7.612-2.061 13.225-15.466 14.777-18.66z" fill="#ffcccf" fill-rule="evenodd"/></g><g><path clip-rule="evenodd" d="m257.545 388.636c14.45 0 31.182-9.515 32.321-25.396-7.613-2.06-13.226-15.465-14.778-18.66-3.378-4.105-8.271-7.565-19.088-7.453-2.09.022-13.513 2.575-19.096 7.453-1.552 3.195-7.165 16.6-14.778 18.66 3.999 25.396 35.419 25.396 35.419 25.396z" fill="#f1d0a5" fill-rule="evenodd"/></g><g><path clip-rule="evenodd" d="m182.897 209.334c11.166-9.912 19.077-24.511 19.077-39.738l-.179-18.869c-17.465-.119-20.182 0-32.542-11.196-6.419 7.195-18.958 11.196-33.378 11.196h-27.645v18.869c0 15.107 7.792 29.617 18.779 39.499 4.627 4.18 9.822 7.494 15.226 9.733 9.285 3.822 16.42 3.822 25.705 0 5.314-2.179 10.419-5.433 14.957-9.494z" fill="#ffe4c1" fill-rule="evenodd"/></g><g><path clip-rule="evenodd" d="m182.897 209.334c11.166-9.912 19.077-24.511 19.077-39.738l-.179-18.869c-7.673-.06-12.479-.06-16.539-.985l.09 11.315c0 15.196-7.911 29.826-19.047 39.738-4.568 4.06-9.643 7.315-14.957 9.494-7.613 3.135-13.793 3.702-20.868 1.702 3.702 2.836 7.673 5.165 11.763 6.837 9.285 3.822 16.42 3.822 25.705 0 5.312-2.179 10.417-5.433 14.955-9.494z" fill="#f1d0a5" fill-rule="evenodd"/></g><g><path clip-rule="evenodd" d="m163.163 234.353c10.419-4.269 11.972-7.165 16.181 0 2.299 3.911 3.403 6.299 5.672 7.912 5.045-3.732 9.374-8.36 12.748-13.704-.209-.03-.418-.09-.627-.149-9.494-2.597-12.27-15.107-14.241-19.078-4.538 4.06-9.643 7.315-14.957 9.494-9.285 3.822-16.42 3.822-25.705 0-4.09-1.672-8.061-4.001-11.763-6.837-1.194-.926-2.329-1.881-3.463-2.896-1.134 2.329-2.627 7.733-5.643 12.271-1.76 2.687 21.109 21.496 41.798 12.987z" fill="#e5c093" fill-rule="evenodd"/></g><g><path clip-rule="evenodd" d="m275.088 344.58c16.42-8.927 29.526-27.049 29.526-46.157l-.179-9.285v-.03c-40.709-51.136-82.309-24.007-96.52-.209l-.358.239-.179 9.285c0 19.107 13.136 37.23 29.526 46.157 1.881 1.045 3.821 1.941 5.762 2.717 9.643 3.792 17.017 3.792 26.66 0 1.971-.777 3.881-1.672 5.762-2.717z" fill="#ffe4c1" fill-rule="evenodd"/></g><g><path clip-rule="evenodd" d="m304.525 289.108c0-24.183-10.897-40.365-25.406-48.515-7.135-4.03-15.166-6.12-23.167-6.24-1.224.03-2.448.09-3.672.209-6.747.597-13.405 2.597-19.435 6.001-14.539 8.151-25.466 24.362-25.466 48.545.179-.06.358-.149.537-.209 13.196-5.284 42.573-1.791 54.365-9.882 5.135-3.553 6.867-4.538 11.404-1.344 4.21 2.956 13.882 11.942 30.75 11.435z" fill="#d19a6e" fill-rule="evenodd"/></g><g><path clip-rule="evenodd" d="m304.525 289.108c0-24.183-10.897-40.365-25.406-48.515-7.135-4.03-15.166-6.12-23.167-6.24-1.224.03-2.448.09-3.672.209-.985.09-1.97.209-2.956.358 1.045.328 2.06.687 3.045 1.105 1.881.776 3.732 1.642 5.523 2.657 13.853 7.822 24.451 22.959 25.347 45.44 5.165 2.806 12.151 5.255 21.197 4.986z" fill="#c38c66" fill-rule="evenodd"/></g><g><path clip-rule="evenodd" d="m275.088 344.58c16.42-8.927 29.526-27.049 29.526-46.157l-.179-9.285v-.03c-9.046.269-16.032-2.179-21.197-4.986.03 1.015.06 2.03.06 3.075h-.09v.03l.179 9.285c0 19.107-13.136 37.26-29.526 46.157-1.881 1.045-3.821 1.941-5.762 2.717-1.97.746-3.821 1.373-5.613 1.821l.179.09c9.643 3.792 17.017 3.792 26.66 0 1.972-.777 3.882-1.672 5.763-2.717z" fill="#f1d0a5" fill-rule="evenodd"/></g><g><path clip-rule="evenodd" d="m289.866 363.239c-7.613-2.06-13.226-15.465-14.778-18.66-1.881 1.045-3.792 1.941-5.762 2.717-9.643 3.792-17.017 3.792-26.66 0-.06-.03-.119-.06-.179-.09-1.911-.746-3.762-1.612-5.583-2.627-.955 1.941-3.344 7.583-6.807 12.211 7.941 6.658 21.674 10.778 32.661 6.449 4.269-1.373 5.404-.567 6.598 1.582 2.448 4.419 4.986 8.389 8.479 10.838 4.807-3.224 8.897-7.464 12.031-12.42z" fill="#e5c093" fill-rule="evenodd"/></g><g><path clip-rule="evenodd" d="m468.248 281.137c58.336-60.457 58.336-159.368 0-219.826-37.468-38.812-91.236-43.32-139.511-24.631 35.467-3.224 70.517 6.986 97.296 34.722 47.947 49.65 56.485 125.303 25.645 184.238 4.03 6.508 6.419 14.868 6.419 25.735v9.793z" fill="#e5646e" fill-rule="evenodd"/></g><g><path clip-rule="evenodd" d="m336.858 405.664c0-31.707-25.406-36.543-46.991-42.425-7.225 11.375-19.406 19.078-33.855 19.078-14.48 0-26.66-7.703-33.885-19.078-21.585 5.882-46.991 10.718-46.991 42.425v5.702l65.919 65.324c7.464 5.941 11.195 9.166 14.957 9.285 3.732-.119 7.464-3.344 14.957-9.285l65.889-65.324z" fill="#ccf49f" fill-rule="evenodd"/></g><g><path clip-rule="evenodd" d="m336.858 405.664c0-31.707-25.406-36.543-46.991-42.425-3.135 4.956-7.225 9.195-12.031 12.42 21.585 5.911 42.095 15.585 42.095 47.291v5.195l16.928-16.779v-5.702z" fill="#b3e59e" fill-rule="evenodd"/></g><g><path clip-rule="evenodd" d="m215.737 256.984c4.448-7.165 10.389-12.659 17.107-16.421-.567-.299-1.134-.627-1.732-.896-10.151-5.195-22.122-8.061-33.348-11.106-3.374 5.344-7.702 9.972-12.748 13.704 9.047 2.448 20.929 9.136 30.721 14.719z" fill="#e7b1b9" fill-rule="evenodd"/></g></g></svg>